<svg width="104" height="27" viewBox="0 0 104 27" fill="none" xmlns="http://www.w3.org/2000/svg">
<path d="M13.312 19.24H15.808L9.282 1.22199H6.552L-1.71363e-06 19.24H2.496L3.952 15.21H11.856L13.312 19.24ZM11.18 13.286H4.628L7.904 4.13399L11.18 13.286ZM17.7795 12.064C17.7795 16.484 20.7175 19.474 24.5395 19.474C27.1395 19.474 28.9855 18.096 29.8435 16.562V19.552C29.8435 22.594 27.9455 24.206 25.4235 24.206C23.0835 24.206 21.3935 23.036 20.8735 21.32H18.5335C19.0015 24.362 21.6795 26.26 25.4235 26.26C29.6095 26.26 32.2355 23.478 32.2355 19.552V4.99199H29.8435V7.59199C29.0115 6.05799 27.1395 4.75799 24.5395 4.75799C20.7175 4.75799 17.7795 7.61799 17.7795 12.064ZM29.8435 12.09C29.8435 15.444 27.6075 17.394 25.0075 17.394C22.4075 17.394 20.1975 15.418 20.1975 12.064C20.1975 8.70999 22.4075 6.81199 25.0075 6.81199C27.6075 6.81199 29.8435 8.78799 29.8435 12.09ZM39.0158 19.24H41.4598L44.8918 7.92999L48.3238 19.24H50.7678L55.2138 4.99199H52.8738L49.6498 16.978L46.1918 4.99199H43.7738L40.2378 16.952L36.9618 4.99199H34.5438L39.0158 19.24ZM71.082 12.09C71.082 7.59199 67.936 4.75799 63.88 4.75799C59.85 4.75799 56.678 7.59199 56.678 12.09C56.678 16.614 59.746 19.474 63.776 19.474C67.832 19.474 71.082 16.614 71.082 12.09ZM59.096 12.09C59.096 8.50199 61.358 6.81199 63.854 6.81199C66.298 6.81199 68.664 8.50199 68.664 12.09C68.664 15.704 66.246 17.394 63.776 17.394C61.306 17.394 59.096 15.704 59.096 12.09ZM76.5588 11.492C76.5588 8.18999 78.2748 7.17599 80.5368 7.17599H81.1608V4.73199C78.8988 4.73199 77.3648 5.71999 76.5588 7.30599V4.99199H74.1928V19.24H76.5588V11.492ZM83.892 19.24H86.258V-1.00136e-05H83.892V19.24ZM89.4065 12.064C89.4065 16.484 92.3445 19.474 96.1665 19.474C98.7665 19.474 100.612 18.148 101.47 16.562V19.24H103.862V-1.00136e-05H101.47V7.53999C100.482 5.90199 98.4285 4.75799 96.1925 4.75799C92.3445 4.75799 89.4065 7.61799 89.4065 12.064ZM101.47 12.09C101.47 15.444 99.2345 17.394 96.6345 17.394C94.0345 17.394 91.8245 15.418 91.8245 12.064C91.8245 8.70999 94.0345 6.81199 96.6345 6.81199C99.2345 6.81199 101.47 8.78799 101.47 12.09Z" fill="#163C35"/>
</svg>
